<svg width="101" height="101" viewBox="0 0 101 101" fill="none" xmlns="http://www.w3.org/2000/svg">
<path d="M56.0553 26.2601C56.0553 24.8656 53.5683 23.7351 50.5003 23.7351C47.4324 23.7351 44.9453 24.8656 44.9453 26.2601C44.9453 27.6546 47.4324 28.7851 50.5003 28.7851C53.5683 28.7851 56.0553 27.6546 56.0553 26.2601Z" fill="#6F42C1"/>
<path d="M70.3369 35.5017C71.2333 34.4334 70.0548 31.9687 67.7046 29.9967C65.3544 28.0247 62.7226 27.292 61.8262 28.3603C60.9298 29.4286 62.1083 31.8932 64.4585 33.8652C66.8087 35.8373 69.4406 36.5699 70.3369 35.5017Z" fill="#6F42C1"/>
<path d="M75.3371 51.7613C76.7105 51.5191 77.3919 48.8735 76.8591 45.8522C76.3264 42.8309 74.7812 40.5779 73.4079 40.8201C72.0346 41.0622 71.3531 43.7078 71.8859 46.7291C72.4186 49.7505 73.9638 52.0034 75.3371 51.7613Z" fill="#6F42C1"/>
<path d="M68.7153 67.4308C69.923 68.1281 72.1456 66.5395 73.6795 63.8825C75.2135 61.2256 75.478 58.5065 74.2703 57.8093C73.0626 57.112 70.8401 58.7006 69.3061 61.3575C67.7721 64.0145 67.5076 66.7336 68.7153 67.4308Z" fill="#6F42C1"/>
<path d="M53.5714 75.1781C54.0484 76.4885 56.7721 76.7002 59.655 75.6509C62.5379 74.6016 64.4884 72.6887 64.0114 71.3783C63.5344 70.0678 60.8107 69.8562 57.9278 70.9055C55.0449 71.9547 53.0945 73.8677 53.5714 75.1781Z" fill="#6F42C1"/>
<path d="M36.99 71.3782C36.5131 72.6886 38.4635 74.6016 41.3464 75.6509C44.2293 76.7002 46.9531 76.4885 47.43 75.1781C47.907 73.8676 45.9565 71.9547 43.0736 70.9054C40.1907 69.8561 37.467 70.0678 36.99 71.3782Z" fill="#6F42C1"/>
<path d="M26.7294 57.8093C25.5217 58.5066 25.7862 61.2257 27.3202 63.8826C28.8541 66.5395 31.0767 68.1281 32.2844 67.4309C33.4921 66.7336 33.2276 64.0145 31.6936 61.3576C30.1596 58.7007 27.9371 57.1121 26.7294 57.8093Z" fill="#6F42C1"/>
<path d="M27.5936 40.8202C26.2203 40.5781 24.6751 42.8311 24.1423 45.8524C23.6096 48.8737 24.291 51.5193 25.6644 51.7615C27.0377 52.0036 28.5829 49.7506 29.1156 46.7293C29.6484 43.708 28.9669 41.0624 27.5936 40.8202Z" fill="#6F42C1"/>
<path d="M39.1748 28.3603C38.2784 27.292 35.6466 28.0247 33.2964 29.9967C30.9462 31.9687 29.7677 34.4334 30.6641 35.5016C31.5604 36.5699 34.1923 35.8373 36.5425 33.8652C38.8927 31.8932 40.0712 29.4285 39.1748 28.3603Z" fill="#6F42C1"/>
</svg>
