<svg width="84" height="92" viewBox="0 0 84 92" fill="none" xmlns="http://www.w3.org/2000/svg">
<path d="M26.157 68.5H41.8575C42.8538 68.4964 43.8082 68.0967 44.5124 67.388L56.534 55.3011C56.7091 55.1251 56.848 54.9162 56.9428 54.6862C57.0376 54.4562 57.0864 54.2097 57.0864 53.9608C57.0864 53.7118 57.0376 53.4653 56.9428 53.2354C56.848 53.0054 56.7091 52.7964 56.534 52.6205L51.2271 47.2762C51.0521 47.1002 50.8442 46.9605 50.6155 46.8652C50.3868 46.7699 50.1416 46.7208 49.894 46.7208C49.6464 46.7208 49.4012 46.7699 49.1725 46.8652C48.9438 46.9605 48.736 47.1002 48.5609 47.2762L39.8459 56.0386C39.4958 56.3913 39.0797 56.6709 38.6217 56.8613C38.1636 57.0516 37.6726 57.149 37.177 57.1478H30.829C30.334 57.148 29.8437 57.0502 29.3862 56.8598C28.9288 56.6695 28.5131 56.3905 28.1629 56.0386L12.8827 40.6725C12.1791 39.9598 11.7845 38.9961 11.7852 37.9919V37.6799C11.786 36.6748 12.1826 35.711 12.8884 34.9993L34.8099 12.9614C35.5114 12.2518 36.4641 11.8509 37.4591 11.8466H62.4841C62.9792 11.8463 63.4694 11.9442 63.9269 12.1345C64.3843 12.3248 64.8 12.6038 65.1502 12.9557L80.2809 28.1715C80.5445 28.4372 80.8806 28.6183 81.2467 28.6917C81.6128 28.7651 81.9923 28.7276 82.3371 28.5839C82.6819 28.4401 82.9765 28.1967 83.1836 27.8844C83.3906 27.5721 83.5007 27.205 83.5 26.8297V16.9015C83.4994 15.8958 83.1016 14.9316 82.394 14.2208L69.8279 1.60913C69.1204 0.899044 68.1615 0.500163 67.1618 0.5L32.7898 0.5C31.7902 0.500783 30.8316 0.89957 30.1237 1.60913L1.60313 30.2847C0.89672 30.9972 0.500033 31.9622 0.5 32.9682V42.7036C0.499853 43.7088 0.896624 44.673 1.60313 45.3842L23.4908 67.3909C24.1982 68.1012 25.1572 68.5002 26.157 68.5Z" fill="black"/>
<path d="M57.8431 24.5H42.1425C41.1429 24.5008 40.1843 24.8937 39.4764 25.5928L27.4548 37.5048C27.2796 37.6782 27.1407 37.8841 27.0459 38.1106C26.9511 38.3372 26.9024 38.5801 26.9024 38.8254C26.9024 39.0707 26.9511 39.3136 27.0459 39.5402C27.1407 39.7668 27.2796 39.9726 27.4548 40.146L32.7729 45.4116C32.948 45.5851 33.1558 45.7228 33.3845 45.8167C33.6132 45.9106 33.8584 45.9589 34.106 45.9589C34.3536 45.9589 34.5988 45.9106 34.8275 45.8167C35.0562 45.7228 35.2641 45.5851 35.4391 45.4116L44.1541 36.7725C44.5041 36.4256 44.9197 36.1505 45.3772 35.963C45.8347 35.7754 46.3251 35.6792 46.8202 35.6797H53.1681C53.6632 35.6795 54.1535 35.7759 54.611 35.9634C55.0684 36.1509 55.4841 36.4258 55.8343 36.7725L71.1173 51.9126C71.823 52.614 72.2196 53.5636 72.2204 54.5539V54.8613C72.2196 55.8516 71.823 56.8012 71.1173 57.5025L49.1958 79.2163C48.8459 79.5635 48.4303 79.8387 47.9728 80.0263C47.5152 80.2138 47.0248 80.3099 46.5296 80.3091H21.5159C21.0194 80.3115 20.5272 80.2167 20.0677 80.0302C19.6082 79.8436 19.1905 79.5689 18.8385 79.2219L3.71915 64.2299C3.45506 63.9675 3.11814 63.7889 2.75127 63.7169C2.38441 63.6448 2.00419 63.6825 1.65902 63.8251C1.31384 63.9678 1.01931 64.2089 0.812924 64.5179C0.606536 64.8269 0.497621 65.1898 0.500039 65.5603V75.3425C0.500641 76.3334 0.89845 77.2834 1.60599 77.9837L14.1721 90.4072C14.88 91.1063 15.8386 91.4992 16.8382 91.5H51.2102C52.2098 91.4992 53.1684 91.1063 53.8763 90.4072L82.3969 62.1505C83.1026 61.4492 83.4992 60.4995 83.5 59.5093V49.9087C83.5001 48.9182 83.1034 47.9683 82.3969 47.2675L60.5092 25.5928C59.8018 24.8929 58.8428 24.4999 57.8431 24.5Z" fill="black"/>
</svg>
