<svg width="16" height="16" viewBox="0 0 16 16" fill="none" xmlns="http://www.w3.org/2000/svg">
  <g clip-path="url(#clip0_1788_568)">
    <path d="M11.707 6.707C11.8892 6.5184 11.99 6.2658 11.9877 6.0036C11.9854 5.7414 11.8802 5.49059 11.6948 5.30518C11.5094 5.11977 11.2586 5.0146 10.9964 5.01233C10.7342 5.01005 10.4816 5.11084 10.293 5.293L7 8.586L5.707 7.293C5.5184 7.11084 5.2658 7.01005 5.0036 7.01233C4.7414 7.0146 4.49059 7.11977 4.30518 7.30518C4.11977 7.49059 4.0146 7.7414 4.01233 8.0036C4.01005 8.2658 4.11084 8.5184 4.293 8.707L6.293 10.707C6.48053 10.8945 6.73484 10.9998 7 10.9998C7.26516 10.9998 7.51947 10.8945 7.707 10.707L11.707 6.707ZM0 8C0 5.87827 0.842855 3.84344 2.34315 2.34315C3.84344 0.842855 5.87827 0 8 0C10.1217 0 12.1566 0.842855 13.6569 2.34315C15.1571 3.84344 16 5.87827 16 8C16 10.1217 15.1571 12.1566 13.6569 13.6569C12.1566 15.1571 10.1217 16 8 16C5.87827 16 3.84344 15.1571 2.34315 13.6569C0.842855 12.1566 0 10.1217 0 8ZM8 2C7.21207 2 6.43185 2.15519 5.7039 2.45672C4.97595 2.75825 4.31451 3.20021 3.75736 3.75736C3.20021 4.31451 2.75825 4.97595 2.45672 5.7039C2.15519 6.43185 2 7.21207 2 8C2 8.78793 2.15519 9.56815 2.45672 10.2961C2.75825 11.0241 3.20021 11.6855 3.75736 12.2426C4.31451 12.7998 4.97595 13.2417 5.7039 13.5433C6.43185 13.8448 7.21207 14 8 14C9.5913 14 11.1174 13.3679 12.2426 12.2426C13.3679 11.1174 14 9.5913 14 8C14 6.4087 13.3679 4.88258 12.2426 3.75736C11.1174 2.63214 9.5913 2 8 2Z" fill="#28A745"/>
  </g>
  <defs>
    <clipPath id="clip0_1788_568">
      <rect width="16" height="16" fill="white"/>
    </clipPath>
  </defs>
</svg>