<svg width="19" height="19" viewBox="0 0 19 19" fill="none" xmlns="http://www.w3.org/2000/svg">
  <path d="M6.9375 6.16667L11.5625 12.3333M11.5625 6.16667L6.9375 12.3333M9.25 16.1875C11.0899 16.1875 12.8545 15.4566 14.1556 14.1556C15.4566 12.8545 16.1875 11.0899 16.1875 9.25C16.1875 7.41006 15.4566 5.64548 14.1556 4.34445C12.8545 3.04341 11.0899 2.3125 9.25 2.3125C7.41006 2.3125 5.64548 3.04341 4.34445 4.34445C3.04341 5.64548 2.3125 7.41006 2.3125 9.25C2.3125 11.0899 3.04341 12.8545 4.34445 14.1556C5.64548 15.4566 7.41006 16.1875 9.25 16.1875Z" stroke="#DC3545" stroke-width="2" stroke-linecap="round" stroke-linejoin="round"/>
</svg>