<svg width="38" height="41" viewBox="0 0 38 41" fill="none" xmlns="http://www.w3.org/2000/svg">
<path fillRule="evenodd" clipRule="evenodd" d="M19.076 30.635H12.0006C11.5501 30.6351 11.118 30.4553 10.7992 30.1352L0.935597 20.218C0.617213 19.8975 0.43841 19.463 0.438477 19.01V14.6228C0.438491 14.1695 0.617256 13.7346 0.935597 13.4135L13.7882 0.491033C14.1073 0.171275 14.5393 -0.0084361 14.9897 -0.00878906H30.4793C30.9298 -0.00871562 31.3619 0.171038 31.6807 0.491033L37.3436 6.17443C37.6624 6.49474 37.8417 6.92926 37.842 7.38244V11.8566C37.8423 12.0257 37.7927 12.1911 37.6994 12.3318C37.6061 12.4726 37.4733 12.5823 37.3179 12.6471C37.1625 12.7118 36.9915 12.7287 36.8265 12.6956C36.6616 12.6626 36.5101 12.581 36.3913 12.4612L29.5728 5.6043C29.4149 5.44574 29.2276 5.31999 29.0215 5.23423C28.8153 5.14847 28.5944 5.10438 28.3713 5.10448H17.0939C16.6455 5.10642 16.2162 5.28709 15.9001 5.60686L6.02122 15.5381C5.70319 15.8589 5.52445 16.2932 5.5241 16.7461V16.8867C5.52378 17.3393 5.70158 17.7736 6.01868 18.0947L12.9046 25.0194C13.0624 25.178 13.2498 25.3037 13.4559 25.3895C13.6621 25.4752 13.883 25.5193 14.1061 25.5192H16.9668C17.1901 25.5198 17.4114 25.4759 17.6178 25.3901C17.8242 25.3043 18.0117 25.1783 18.1695 25.0194L22.0969 21.0707C22.1758 20.9913 22.2694 20.9284 22.3725 20.8854C22.4756 20.8425 22.586 20.8204 22.6976 20.8204C22.8092 20.8204 22.9197 20.8425 23.0228 20.8854C23.1258 20.9284 23.2195 20.9913 23.2984 21.0707L25.6899 23.479C25.7688 23.5583 25.8314 23.6525 25.8741 23.7561C25.9168 23.8598 25.9388 23.9708 25.9388 24.083C25.9388 24.1952 25.9168 24.3063 25.8741 24.4099C25.8314 24.5136 25.7688 24.6077 25.6899 24.687L20.2724 30.1339C19.9551 30.4533 19.525 30.6334 19.076 30.635ZM19.2044 10.3557H26.2798C26.7304 10.3556 27.1625 10.5354 27.4813 10.8555L37.3449 20.7689C37.6632 21.0894 37.842 21.5239 37.842 21.9769V26.3679C37.8416 26.8208 37.6629 27.2552 37.3449 27.5759L24.4922 40.4997C24.1732 40.8195 23.7412 40.9992 23.2907 40.9995H7.80121C7.35074 40.9992 6.91875 40.8195 6.59973 40.4997L0.936885 34.8176C0.618036 34.4973 0.438765 34.0628 0.438494 33.6096V29.1355C0.437404 28.966 0.486487 28.8001 0.579494 28.6587C0.672502 28.5174 0.805229 28.4071 0.960781 28.3419C1.11633 28.2766 1.28768 28.2594 1.453 28.2924C1.61833 28.3253 1.77016 28.407 1.88917 28.527L8.70263 35.3839C8.86125 35.5426 9.0495 35.6682 9.25656 35.7536C9.46362 35.8389 9.68542 35.8823 9.9092 35.8812H21.1815C21.4046 35.8815 21.6256 35.8376 21.8318 35.7518C22.038 35.666 22.2253 35.5401 22.383 35.3813L32.2618 25.4501C32.5798 25.1293 32.7586 24.695 32.7589 24.2421V24.1015C32.7586 23.6485 32.5798 23.2142 32.2618 22.8935L25.3746 15.9688C25.2168 15.8102 25.0294 15.6845 24.8233 15.5987C24.6171 15.513 24.3962 15.4689 24.1731 15.469H21.3124C21.0893 15.4687 20.8683 15.5128 20.6622 15.5985C20.456 15.6843 20.2687 15.8101 20.111 15.9688L16.1836 19.9201C16.1047 19.9994 16.0111 20.0624 15.908 20.1053C15.8049 20.1483 15.6944 20.1704 15.5828 20.1704C15.4713 20.1704 15.3608 20.1483 15.2577 20.1053C15.1546 20.0624 15.061 19.9994 14.9821 19.9201L12.5855 17.5117C12.5066 17.4324 12.444 17.3383 12.4013 17.2346C12.3585 17.131 12.3366 17.0199 12.3366 16.9077C12.3366 16.7955 12.3585 16.6845 12.4013 16.5808C12.444 16.4772 12.5066 16.383 12.5855 16.3037L18.003 10.8555C18.322 10.5358 18.754 10.3561 19.2044 10.3557Z" fill="#111111"/>
</svg>
